# xmcd
#
# Track frame offsets:
#	150
#	13445
#	26469
#	37467
#	51570
#	69495
#	81847
#	94840
#	106150
#	120260
#	130167
#
# Disc length: 1894 seconds
#
# Revision: 2
# Processed by: cddbd v1.4PL0 Copyright (c) Steve Scherf et al.
# Submitted via: audiograbber 1.80
#
DISCID=9607640b
DTITLE=Charlie Rich - Behind Closed Doors
DYEAR=1900
DGENRE=
TTITLE0=Behind Closed Doors
TTITLE1=If You Wouldn't Be My Lady
TTITLE2=You Never Really Wanted Me
TTITLE3=A Sunday Kind Of Woman
TTITLE4=Peace On You
TTITLE5=The Most Beautiful Girl
TTITLE6=I Take It On Home
TTITLE7='Til I Can't Take It Anymore
TTITLE8=We Love Each Other
TTITLE9=I'm Not Going Hungry Anymore
TTITLE10=Nothing In The World (To Do With Me)
EXTD=
EXTT0=
EXTT1=
EXTT2=
EXTT3=
EXTT4=
EXTT5=
EXTT6=
EXTT7=
EXTT8=
EXTT9=
EXTT10=
PLAYORDER=
